<svg width="22" height="12" viewBox="0 0 22 12" fill="none" xmlns="http://www.w3.org/2000/svg">
<path d="M4.38184 11.1641C3.59342 11.1641 2.91211 10.9499 2.33789 10.5215C1.76823 10.0931 1.32845 9.48698 1.01855 8.70312C0.708659 7.91471 0.553711 6.98503 0.553711 5.91406C0.553711 4.83854 0.708659 3.90658 1.01855 3.11816C1.32845 2.32975 1.76823 1.72135 2.33789 1.29297C2.91211 0.864583 3.59342 0.650391 4.38184 0.650391C5.16569 0.650391 5.84245 0.864583 6.41211 1.29297C6.98633 1.72135 7.42839 2.32975 7.73828 3.11816C8.04818 3.90658 8.20312 4.83854 8.20312 5.91406C8.20312 6.98503 8.04818 7.91471 7.73828 8.70312C7.42839 9.48698 6.98633 10.0931 6.41211 10.5215C5.84245 10.9499 5.16569 11.1641 4.38184 11.1641ZM4.38184 9.87207C5.12012 9.87207 5.70117 9.52116 6.125 8.81934C6.55339 8.11296 6.76758 7.14453 6.76758 5.91406C6.76758 4.67904 6.55339 3.70833 6.125 3.00195C5.70117 2.29557 5.12012 1.94238 4.38184 1.94238C3.639 1.94238 3.05339 2.29557 2.625 3.00195C2.20117 3.70833 1.98926 4.67904 1.98926 5.91406C1.98926 7.14453 2.20117 8.11296 2.625 8.81934C3.05339 9.52116 3.639 9.87207 4.38184 9.87207ZM13.2455 11.1641C12.4571 11.1641 11.7758 10.9499 11.2016 10.5215C10.6319 10.0931 10.1921 9.48698 9.88223 8.70312C9.57233 7.91471 9.41738 6.98503 9.41738 5.91406C9.41738 4.83854 9.57233 3.90658 9.88223 3.11816C10.1921 2.32975 10.6319 1.72135 11.2016 1.29297C11.7758 0.864583 12.4571 0.650391 13.2455 0.650391C14.0294 0.650391 14.7061 0.864583 15.2758 1.29297C15.85 1.72135 16.2921 2.32975 16.602 3.11816C16.9118 3.90658 17.0668 4.83854 17.0668 5.91406C17.0668 6.98503 16.9118 7.91471 16.602 8.70312C16.2921 9.48698 15.85 10.0931 15.2758 10.5215C14.7061 10.9499 14.0294 11.1641 13.2455 11.1641ZM13.2455 9.87207C13.9838 9.87207 14.5648 9.52116 14.9887 8.81934C15.4171 8.11296 15.6313 7.14453 15.6313 5.91406C15.6313 4.67904 15.4171 3.70833 14.9887 3.00195C14.5648 2.29557 13.9838 1.94238 13.2455 1.94238C12.5027 1.94238 11.9171 2.29557 11.4887 3.00195C11.0648 3.70833 10.8529 4.67904 10.8529 5.91406C10.8529 7.14453 11.0648 8.11296 11.4887 8.81934C11.9171 9.52116 12.5027 9.87207 13.2455 9.87207ZM21.9998 0.814453V11H20.5301V2.30469H20.5232L18.035 3.93164V2.48242L20.5711 0.814453H21.9998Z" fill="#323C61"/>
</svg>
