<svg width="26" height="12" viewBox="0 0 26 12" fill="none" xmlns="http://www.w3.org/2000/svg">
<path d="M4.38184 11.1641C3.59342 11.1641 2.91211 10.9499 2.33789 10.5215C1.76823 10.0931 1.32845 9.48698 1.01855 8.70312C0.708659 7.91471 0.553711 6.98503 0.553711 5.91406C0.553711 4.83854 0.708659 3.90658 1.01855 3.11816C1.32845 2.32975 1.76823 1.72135 2.33789 1.29297C2.91211 0.864583 3.59342 0.650391 4.38184 0.650391C5.16569 0.650391 5.84245 0.864583 6.41211 1.29297C6.98633 1.72135 7.42839 2.32975 7.73828 3.11816C8.04818 3.90658 8.20312 4.83854 8.20312 5.91406C8.20312 6.98503 8.04818 7.91471 7.73828 8.70312C7.42839 9.48698 6.98633 10.0931 6.41211 10.5215C5.84245 10.9499 5.16569 11.1641 4.38184 11.1641ZM4.38184 9.87207C5.12012 9.87207 5.70117 9.52116 6.125 8.81934C6.55339 8.11296 6.76758 7.14453 6.76758 5.91406C6.76758 4.67904 6.55339 3.70833 6.125 3.00195C5.70117 2.29557 5.12012 1.94238 4.38184 1.94238C3.639 1.94238 3.05339 2.29557 2.625 3.00195C2.20117 3.70833 1.98926 4.67904 1.98926 5.91406C1.98926 7.14453 2.20117 8.11296 2.625 8.81934C3.05339 9.52116 3.639 9.87207 4.38184 9.87207ZM13.2455 11.1641C12.4571 11.1641 11.7758 10.9499 11.2016 10.5215C10.6319 10.0931 10.1921 9.48698 9.88223 8.70312C9.57233 7.91471 9.41738 6.98503 9.41738 5.91406C9.41738 4.83854 9.57233 3.90658 9.88223 3.11816C10.1921 2.32975 10.6319 1.72135 11.2016 1.29297C11.7758 0.864583 12.4571 0.650391 13.2455 0.650391C14.0294 0.650391 14.7061 0.864583 15.2758 1.29297C15.85 1.72135 16.2921 2.32975 16.602 3.11816C16.9118 3.90658 17.0668 4.83854 17.0668 5.91406C17.0668 6.98503 16.9118 7.91471 16.602 8.70312C16.2921 9.48698 15.85 10.0931 15.2758 10.5215C14.7061 10.9499 14.0294 11.1641 13.2455 11.1641ZM13.2455 9.87207C13.9838 9.87207 14.5648 9.52116 14.9887 8.81934C15.4171 8.11296 15.6313 7.14453 15.6313 5.91406C15.6313 4.67904 15.4171 3.70833 14.9887 3.00195C14.5648 2.29557 13.9838 1.94238 13.2455 1.94238C12.5027 1.94238 11.9171 2.29557 11.4887 3.00195C11.0648 3.70833 10.8529 4.67904 10.8529 5.91406C10.8529 7.14453 11.0648 8.11296 11.4887 8.81934C11.9171 9.52116 12.5027 9.87207 13.2455 9.87207ZM22.0066 11.1641C21.2547 11.1641 20.603 11.016 20.0516 10.7197C19.5047 10.4235 19.0809 10.0179 18.7801 9.50293C18.4793 8.98796 18.3289 8.40234 18.3289 7.74609H19.826C19.826 8.42513 20.0151 8.95378 20.3934 9.33203C20.7762 9.71029 21.3048 9.89941 21.9793 9.89941C22.6264 9.89941 23.1505 9.73535 23.5516 9.40723C23.9572 9.0791 24.16 8.63932 24.16 8.08789C24.16 7.58203 23.9435 7.17643 23.5105 6.87109C23.0822 6.5612 22.5171 6.40625 21.8152 6.40625H20.9676V5.16895H21.8152C22.435 5.16895 22.9341 5.02767 23.3123 4.74512C23.6951 4.46257 23.8865 4.08659 23.8865 3.61719C23.8865 3.08854 23.7088 2.67155 23.3533 2.36621C22.9979 2.06087 22.5285 1.9082 21.9451 1.9082C21.3436 1.9082 20.8673 2.07682 20.5164 2.41406C20.1701 2.7513 19.9969 3.21615 19.9969 3.80859H18.5408C18.5408 3.19336 18.6844 2.64876 18.9715 2.1748C19.2586 1.69629 19.6574 1.32259 20.1678 1.05371C20.6782 0.784831 21.2729 0.650391 21.952 0.650391C22.5991 0.650391 23.1779 0.773438 23.6883 1.01953C24.1987 1.26107 24.5997 1.59831 24.8914 2.03125C25.1876 2.45964 25.3357 2.94954 25.3357 3.50098C25.3357 4.03874 25.1671 4.50586 24.8299 4.90234C24.4926 5.29427 24.0392 5.56771 23.4695 5.72266V5.74316C24.1395 5.84798 24.6704 6.12142 25.0623 6.56348C25.4542 7.00553 25.6502 7.52734 25.6502 8.12891C25.6502 8.72135 25.493 9.24544 25.1785 9.70117C24.8641 10.1569 24.4311 10.5146 23.8797 10.7744C23.3328 11.0342 22.7085 11.1641 22.0066 11.1641Z" fill="#323C61"/>
</svg>
