<svg width="32" height="16" viewBox="0 0 32 16" fill="none" xmlns="http://www.w3.org/2000/svg">
<path d="M7.38184 13.1641C6.59342 13.1641 5.91211 12.9499 5.33789 12.5215C4.76823 12.0931 4.32845 11.487 4.01855 10.7031C3.70866 9.91471 3.55371 8.98503 3.55371 7.91406C3.55371 6.83854 3.70866 5.90658 4.01855 5.11816C4.32845 4.32975 4.76823 3.72135 5.33789 3.29297C5.91211 2.86458 6.59342 2.65039 7.38184 2.65039C8.16569 2.65039 8.84245 2.86458 9.41211 3.29297C9.98633 3.72135 10.4284 4.32975 10.7383 5.11816C11.0482 5.90658 11.2031 6.83854 11.2031 7.91406C11.2031 8.98503 11.0482 9.91471 10.7383 10.7031C10.4284 11.487 9.98633 12.0931 9.41211 12.5215C8.84245 12.9499 8.16569 13.1641 7.38184 13.1641ZM7.38184 11.8721C8.12012 11.8721 8.70117 11.5212 9.125 10.8193C9.55339 10.113 9.76758 9.14453 9.76758 7.91406C9.76758 6.67904 9.55339 5.70833 9.125 5.00195C8.70117 4.29557 8.12012 3.94238 7.38184 3.94238C6.639 3.94238 6.05339 4.29557 5.625 5.00195C5.20117 5.70833 4.98926 6.67904 4.98926 7.91406C4.98926 9.14453 5.20117 10.113 5.625 10.8193C6.05339 11.5212 6.639 11.8721 7.38184 11.8721Z" fill="#323C61"/>
<path d="M16.2455 13.1641C15.4571 13.1641 14.7758 12.9499 14.2016 12.5215C13.6319 12.0931 13.1921 11.487 12.8822 10.7031C12.5723 9.91471 12.4174 8.98503 12.4174 7.91406C12.4174 6.83854 12.5723 5.90658 12.8822 5.11816C13.1921 4.32975 13.6319 3.72135 14.2016 3.29297C14.7758 2.86458 15.4571 2.65039 16.2455 2.65039C17.0294 2.65039 17.7061 2.86458 18.2758 3.29297C18.85 3.72135 19.2921 4.32975 19.602 5.11816C19.9118 5.90658 20.0668 6.83854 20.0668 7.91406C20.0668 8.98503 19.9118 9.91471 19.602 10.7031C19.2921 11.487 18.85 12.0931 18.2758 12.5215C17.7061 12.9499 17.0294 13.1641 16.2455 13.1641ZM16.2455 11.8721C16.9838 11.8721 17.5648 11.5212 17.9887 10.8193C18.4171 10.113 18.6313 9.14453 18.6313 7.91406C18.6313 6.67904 18.4171 5.70833 17.9887 5.00195C17.5648 4.29557 16.9838 3.94238 16.2455 3.94238C15.5027 3.94238 14.9171 4.29557 14.4887 5.00195C14.0648 5.70833 13.8529 6.67904 13.8529 7.91406C13.8529 9.14453 14.0648 10.113 14.4887 10.8193C14.9171 11.5212 15.5027 11.8721 16.2455 11.8721Z" fill="#323C61"/>
<path d="M24.8221 13.1436C24.143 13.1436 23.5369 13.0091 23.0037 12.7402C22.4751 12.4668 22.0512 12.0931 21.7322 11.6191C21.4178 11.1406 21.2469 10.596 21.2195 9.98535H22.7029C22.7485 10.5322 22.9673 10.9834 23.3592 11.3389C23.7557 11.6898 24.2456 11.8652 24.8289 11.8652C25.4441 11.8652 25.9409 11.6579 26.3191 11.2432C26.702 10.8285 26.8934 10.2975 26.8934 9.65039C26.8934 9.00781 26.7088 8.47917 26.3396 8.06445C25.9705 7.64518 25.4897 7.43555 24.8973 7.43555C24.3777 7.43555 23.9311 7.54264 23.5574 7.75684C23.1837 7.96647 22.924 8.27181 22.7781 8.67285H21.3494L21.6844 2.81445H27.7752V4.11328H23.0447L22.8191 7.11426H22.8328C23.4298 6.48079 24.1932 6.16406 25.1229 6.16406C25.7426 6.16406 26.2941 6.31445 26.7771 6.61523C27.2648 6.91146 27.6476 7.32161 27.9256 7.8457C28.2081 8.36523 28.3494 8.95768 28.3494 9.62305C28.3494 10.3112 28.2013 10.9196 27.9051 11.4482C27.6134 11.9769 27.2033 12.3916 26.6746 12.6924C26.146 12.9932 25.5285 13.1436 24.8221 13.1436Z" fill="#323C61"/>
</svg>
