<svg width="32" height="16" viewBox="0 0 32 16" fill="none" xmlns="http://www.w3.org/2000/svg">
<path d="M7.38184 13.1641C6.59342 13.1641 5.91211 12.9499 5.33789 12.5215C4.76823 12.0931 4.32845 11.487 4.01855 10.7031C3.70866 9.91471 3.55371 8.98503 3.55371 7.91406C3.55371 6.83854 3.70866 5.90658 4.01855 5.11816C4.32845 4.32975 4.76823 3.72135 5.33789 3.29297C5.91211 2.86458 6.59342 2.65039 7.38184 2.65039C8.16569 2.65039 8.84245 2.86458 9.41211 3.29297C9.98633 3.72135 10.4284 4.32975 10.7383 5.11816C11.0482 5.90658 11.2031 6.83854 11.2031 7.91406C11.2031 8.98503 11.0482 9.91471 10.7383 10.7031C10.4284 11.487 9.98633 12.0931 9.41211 12.5215C8.84245 12.9499 8.16569 13.1641 7.38184 13.1641ZM7.38184 11.8721C8.12012 11.8721 8.70117 11.5212 9.125 10.8193C9.55339 10.113 9.76758 9.14453 9.76758 7.91406C9.76758 6.67904 9.55339 5.70833 9.125 5.00195C8.70117 4.29557 8.12012 3.94238 7.38184 3.94238C6.639 3.94238 6.05339 4.29557 5.625 5.00195C5.20117 5.70833 4.98926 6.67904 4.98926 7.91406C4.98926 9.14453 5.20117 10.113 5.625 10.8193C6.05339 11.5212 6.639 11.8721 7.38184 11.8721Z" fill="#323C61"/>
<path d="M16.2455 13.1641C15.4571 13.1641 14.7758 12.9499 14.2016 12.5215C13.6319 12.0931 13.1921 11.487 12.8822 10.7031C12.5723 9.91471 12.4174 8.98503 12.4174 7.91406C12.4174 6.83854 12.5723 5.90658 12.8822 5.11816C13.1921 4.32975 13.6319 3.72135 14.2016 3.29297C14.7758 2.86458 15.4571 2.65039 16.2455 2.65039C17.0294 2.65039 17.7061 2.86458 18.2758 3.29297C18.85 3.72135 19.2921 4.32975 19.602 5.11816C19.9118 5.90658 20.0668 6.83854 20.0668 7.91406C20.0668 8.98503 19.9118 9.91471 19.602 10.7031C19.2921 11.487 18.85 12.0931 18.2758 12.5215C17.7061 12.9499 17.0294 13.1641 16.2455 13.1641ZM16.2455 11.8721C16.9838 11.8721 17.5648 11.5212 17.9887 10.8193C18.4171 10.113 18.6313 9.14453 18.6313 7.91406C18.6313 6.67904 18.4171 5.70833 17.9887 5.00195C17.5648 4.29557 16.9838 3.94238 16.2455 3.94238C15.5027 3.94238 14.9171 4.29557 14.4887 5.00195C14.0648 5.70833 13.8529 6.67904 13.8529 7.91406C13.8529 9.14453 14.0648 10.113 14.4887 10.8193C14.9171 11.5212 15.5027 11.8721 16.2455 11.8721Z" fill="#323C61"/>
<path d="M24.9793 13.1641C23.8035 13.1641 22.8921 12.738 22.2449 11.8857C21.6023 11.0335 21.2811 9.83268 21.2811 8.2832C21.2811 7.14844 21.4201 6.15951 21.698 5.31641C21.976 4.47331 22.3976 3.81934 22.9627 3.35449C23.5324 2.88509 24.2501 2.65039 25.116 2.65039C25.7358 2.65039 26.2804 2.76888 26.7498 3.00586C27.2238 3.23828 27.6043 3.56413 27.8914 3.9834C28.1785 4.40267 28.3517 4.88574 28.4109 5.43262H26.9549C26.8683 4.97233 26.6701 4.60547 26.3602 4.33203C26.0548 4.05859 25.6538 3.92188 25.157 3.92188C24.6056 3.92188 24.1476 4.0791 23.783 4.39355C23.423 4.70801 23.1541 5.14095 22.9764 5.69238C22.7986 6.24382 22.7098 6.87956 22.7098 7.59961H22.7234C22.9604 7.20768 23.3022 6.90007 23.7488 6.67676C24.2 6.44889 24.6967 6.33496 25.2391 6.33496C25.8634 6.33496 26.4217 6.48307 26.9139 6.7793C27.4061 7.07096 27.7934 7.47201 28.076 7.98242C28.3631 8.49284 28.5066 9.07161 28.5066 9.71875C28.5066 10.3978 28.3563 10.9971 28.0555 11.5166C27.7547 12.0316 27.3377 12.4349 26.8045 12.7266C26.2758 13.0182 25.6674 13.1641 24.9793 13.1641ZM24.9725 11.8857C25.3598 11.8857 25.7085 11.79 26.0184 11.5986C26.3328 11.4027 26.5812 11.1429 26.7635 10.8193C26.9503 10.4912 27.0438 10.1243 27.0438 9.71875C27.0438 9.31771 26.9549 8.95768 26.7771 8.63867C26.5994 8.3151 26.3556 8.0599 26.0457 7.87305C25.7404 7.68164 25.394 7.58594 25.0066 7.58594C24.6193 7.58594 24.2661 7.68164 23.9471 7.87305C23.6326 8.06445 23.382 8.32194 23.1951 8.64551C23.0083 8.96908 22.9148 9.33138 22.9148 9.73242C22.9148 10.1289 23.006 10.4912 23.1883 10.8193C23.3751 11.1429 23.6235 11.4027 23.9334 11.5986C24.2479 11.79 24.5942 11.8857 24.9725 11.8857Z" fill="#323C61"/>
</svg>
