<svg width="32" height="16" viewBox="0 0 32 16" fill="none" xmlns="http://www.w3.org/2000/svg">
<path d="M8.38184 13.1641C7.59342 13.1641 6.91211 12.9499 6.33789 12.5215C5.76823 12.0931 5.32845 11.487 5.01855 10.7031C4.70866 9.91471 4.55371 8.98503 4.55371 7.91406C4.55371 6.83854 4.70866 5.90658 5.01855 5.11816C5.32845 4.32975 5.76823 3.72135 6.33789 3.29297C6.91211 2.86458 7.59342 2.65039 8.38184 2.65039C9.16569 2.65039 9.84245 2.86458 10.4121 3.29297C10.9863 3.72135 11.4284 4.32975 11.7383 5.11816C12.0482 5.90658 12.2031 6.83854 12.2031 7.91406C12.2031 8.98503 12.0482 9.91471 11.7383 10.7031C11.4284 11.487 10.9863 12.0931 10.4121 12.5215C9.84245 12.9499 9.16569 13.1641 8.38184 13.1641ZM8.38184 11.8721C9.12012 11.8721 9.70117 11.5212 10.125 10.8193C10.5534 10.113 10.7676 9.14453 10.7676 7.91406C10.7676 6.67904 10.5534 5.70833 10.125 5.00195C9.70117 4.29557 9.12012 3.94238 8.38184 3.94238C7.639 3.94238 7.05339 4.29557 6.625 5.00195C6.20117 5.70833 5.98926 6.67904 5.98926 7.91406C5.98926 9.14453 6.20117 10.113 6.625 10.8193C7.05339 11.5212 7.639 11.8721 8.38184 11.8721Z" fill="#323C61"/>
<path d="M17.2455 13.1641C16.4571 13.1641 15.7758 12.9499 15.2016 12.5215C14.6319 12.0931 14.1921 11.487 13.8822 10.7031C13.5723 9.91471 13.4174 8.98503 13.4174 7.91406C13.4174 6.83854 13.5723 5.90658 13.8822 5.11816C14.1921 4.32975 14.6319 3.72135 15.2016 3.29297C15.7758 2.86458 16.4571 2.65039 17.2455 2.65039C18.0294 2.65039 18.7061 2.86458 19.2758 3.29297C19.85 3.72135 20.2921 4.32975 20.602 5.11816C20.9118 5.90658 21.0668 6.83854 21.0668 7.91406C21.0668 8.98503 20.9118 9.91471 20.602 10.7031C20.2921 11.487 19.85 12.0931 19.2758 12.5215C18.7061 12.9499 18.0294 13.1641 17.2455 13.1641ZM17.2455 11.8721C17.9838 11.8721 18.5648 11.5212 18.9887 10.8193C19.4171 10.113 19.6313 9.14453 19.6313 7.91406C19.6313 6.67904 19.4171 5.70833 18.9887 5.00195C18.5648 4.29557 17.9838 3.94238 17.2455 3.94238C16.5027 3.94238 15.9171 4.29557 15.4887 5.00195C15.0648 5.70833 14.8529 6.67904 14.8529 7.91406C14.8529 9.14453 15.0648 10.113 15.4887 10.8193C15.9171 11.5212 16.5027 11.8721 17.2455 11.8721Z" fill="#323C61"/>
<path d="M22.4861 13L26.9705 4.13379V4.12695H21.782V2.81445H28.5018V4.16797L24.0584 13H22.4861Z" fill="#323C61"/>
</svg>
