<svg width="32" height="16" viewBox="0 0 32 16" fill="none" xmlns="http://www.w3.org/2000/svg">
<path d="M7.38184 13.1641C6.59342 13.1641 5.91211 12.9499 5.33789 12.5215C4.76823 12.0931 4.32845 11.487 4.01855 10.7031C3.70866 9.91471 3.55371 8.98503 3.55371 7.91406C3.55371 6.83854 3.70866 5.90658 4.01855 5.11816C4.32845 4.32975 4.76823 3.72135 5.33789 3.29297C5.91211 2.86458 6.59342 2.65039 7.38184 2.65039C8.16569 2.65039 8.84245 2.86458 9.41211 3.29297C9.98633 3.72135 10.4284 4.32975 10.7383 5.11816C11.0482 5.90658 11.2031 6.83854 11.2031 7.91406C11.2031 8.98503 11.0482 9.91471 10.7383 10.7031C10.4284 11.487 9.98633 12.0931 9.41211 12.5215C8.84245 12.9499 8.16569 13.1641 7.38184 13.1641ZM7.38184 11.8721C8.12012 11.8721 8.70117 11.5212 9.125 10.8193C9.55339 10.113 9.76758 9.14453 9.76758 7.91406C9.76758 6.67904 9.55339 5.70833 9.125 5.00195C8.70117 4.29557 8.12012 3.94238 7.38184 3.94238C6.639 3.94238 6.05339 4.29557 5.625 5.00195C5.20117 5.70833 4.98926 6.67904 4.98926 7.91406C4.98926 9.14453 5.20117 10.113 5.625 10.8193C6.05339 11.5212 6.639 11.8721 7.38184 11.8721Z" fill="#323C61"/>
<path d="M16.2455 13.1641C15.4571 13.1641 14.7758 12.9499 14.2016 12.5215C13.6319 12.0931 13.1921 11.487 12.8822 10.7031C12.5723 9.91471 12.4174 8.98503 12.4174 7.91406C12.4174 6.83854 12.5723 5.90658 12.8822 5.11816C13.1921 4.32975 13.6319 3.72135 14.2016 3.29297C14.7758 2.86458 15.4571 2.65039 16.2455 2.65039C17.0294 2.65039 17.7061 2.86458 18.2758 3.29297C18.85 3.72135 19.2921 4.32975 19.602 5.11816C19.9118 5.90658 20.0668 6.83854 20.0668 7.91406C20.0668 8.98503 19.9118 9.91471 19.602 10.7031C19.2921 11.487 18.85 12.0931 18.2758 12.5215C17.7061 12.9499 17.0294 13.1641 16.2455 13.1641ZM16.2455 11.8721C16.9838 11.8721 17.5648 11.5212 17.9887 10.8193C18.4171 10.113 18.6313 9.14453 18.6313 7.91406C18.6313 6.67904 18.4171 5.70833 17.9887 5.00195C17.5648 4.29557 16.9838 3.94238 16.2455 3.94238C15.5027 3.94238 14.9171 4.29557 14.4887 5.00195C14.0648 5.70833 13.8529 6.67904 13.8529 7.91406C13.8529 9.14453 14.0648 10.113 14.4887 10.8193C14.9171 11.5212 15.5027 11.8721 16.2455 11.8721Z" fill="#323C61"/>
<path d="M24.8768 13.1641C24.1704 13.1641 23.546 13.041 23.0037 12.7949C22.466 12.5488 22.0444 12.2093 21.7391 11.7764C21.4337 11.3434 21.2811 10.8467 21.2811 10.2861C21.2811 9.8304 21.379 9.41797 21.575 9.04883C21.771 8.67513 22.0376 8.36979 22.3748 8.13281C22.7166 7.89128 23.104 7.74316 23.5369 7.68848C22.9764 7.58366 22.5206 7.32617 22.1697 6.91602C21.8188 6.50586 21.6434 5.99772 21.6434 5.3916C21.6434 4.86296 21.7824 4.39355 22.0604 3.9834C22.3383 3.56868 22.7212 3.24284 23.2088 3.00586C23.6964 2.76888 24.2524 2.65039 24.8768 2.65039C25.5011 2.65039 26.0548 2.76888 26.5379 3.00586C27.0255 3.23828 27.4083 3.56185 27.6863 3.97656C27.9643 4.39128 28.1033 4.86296 28.1033 5.3916C28.1033 5.99316 27.9256 6.5013 27.5701 6.91602C27.2192 7.32617 26.768 7.58366 26.2166 7.68848C26.6495 7.74772 27.0346 7.89811 27.3719 8.13965C27.7137 8.37663 27.9826 8.68197 28.1785 9.05566C28.3745 9.4248 28.4725 9.83496 28.4725 10.2861C28.4725 10.8467 28.3198 11.3434 28.0145 11.7764C27.7091 12.2093 27.2853 12.5488 26.743 12.7949C26.2007 13.041 25.5786 13.1641 24.8768 13.1641ZM24.8768 11.9268C25.5057 11.9268 26.0092 11.7695 26.3875 11.4551C26.7658 11.1406 26.9549 10.7214 26.9549 10.1973C26.9549 9.66406 26.7589 9.22656 26.367 8.88477C25.9796 8.53841 25.4829 8.36523 24.8768 8.36523C24.2661 8.36523 23.7648 8.53841 23.3729 8.88477C22.9809 9.22656 22.785 9.66406 22.785 10.1973C22.785 10.7168 22.9741 11.1361 23.3523 11.4551C23.7352 11.7695 24.2433 11.9268 24.8768 11.9268ZM24.8768 7.1416C25.4008 7.1416 25.8247 6.99349 26.1482 6.69727C26.4764 6.39648 26.6404 6 26.6404 5.50781C26.6404 5.02474 26.4786 4.63509 26.1551 4.33887C25.8315 4.04264 25.4054 3.89453 24.8768 3.89453C24.3436 3.89453 23.9152 4.04264 23.5916 4.33887C23.268 4.63509 23.1063 5.02474 23.1063 5.50781C23.1063 5.99544 23.268 6.38965 23.5916 6.69043C23.9197 6.99121 24.3481 7.1416 24.8768 7.1416Z" fill="#323C61"/>
</svg>
