<svg width="17" height="10" viewBox="0 0 17 10" fill="none" xmlns="http://www.w3.org/2000/svg">
<path d="M3.67969 9.14062C3.03516 9.14062 2.47656 8.95703 2.00391 8.58984C1.53516 8.21875 1.17188 7.69727 0.914062 7.02539C0.65625 6.35352 0.527344 5.55859 0.527344 4.64062C0.527344 3.71875 0.65625 2.92188 0.914062 2.25C1.17188 1.57422 1.53516 1.05273 2.00391 0.685547C2.47656 0.314453 3.03516 0.128906 3.67969 0.128906C4.32422 0.128906 4.88281 0.314453 5.35547 0.685547C5.82812 1.05273 6.19141 1.57422 6.44531 2.25C6.70312 2.92188 6.83203 3.71875 6.83203 4.64062C6.83203 5.55859 6.70312 6.35352 6.44531 7.02539C6.19141 7.69727 5.82812 8.21875 5.35547 8.58984C4.88281 8.95703 4.32422 9.14062 3.67969 9.14062ZM3.67969 8.20312C4.34766 8.20312 4.87305 7.88672 5.25586 7.25391C5.64258 6.61719 5.83594 5.74609 5.83594 4.64062C5.83594 3.52734 5.64258 2.6543 5.25586 2.02148C4.87305 1.38477 4.34766 1.06641 3.67969 1.06641C3.01172 1.06641 2.48438 1.38477 2.09766 2.02148C1.71484 2.6543 1.52344 3.52734 1.52344 4.64062C1.52344 5.74609 1.71484 6.61719 2.09766 7.25391C2.48438 7.88672 3.01172 8.20312 3.67969 8.20312ZM10.3574 9V8.11523L13.4629 5.2793C13.834 4.93945 14.1348 4.64062 14.3652 4.38281C14.5996 4.125 14.7715 3.87305 14.8809 3.62695C14.9902 3.38086 15.0449 3.10938 15.0449 2.8125C15.0449 2.27344 14.8848 1.84766 14.5645 1.53516C14.248 1.22266 13.8125 1.06641 13.2578 1.06641C12.6602 1.06641 12.1973 1.25 11.8691 1.61719C11.541 1.98047 11.377 2.47266 11.377 3.09375H10.3926C10.3926 2.51172 10.5098 1.99805 10.7441 1.55273C10.9824 1.10742 11.3164 0.759766 11.7461 0.509766C12.1758 0.255859 12.6777 0.128906 13.252 0.128906C13.7988 0.128906 14.2812 0.242187 14.6992 0.46875C15.1172 0.691406 15.4453 1.00195 15.6836 1.40039C15.9219 1.79492 16.041 2.25195 16.041 2.77148C16.041 3.33398 15.8848 3.85156 15.5723 4.32422C15.2637 4.79688 14.7891 5.32422 14.1484 5.90625L11.7871 8.05078V8.0625H16.0938V9H10.3574Z" fill="#323C61"/>
</svg>
