<svg width="17" height="10" viewBox="0 0 17 10" fill="none" xmlns="http://www.w3.org/2000/svg">
<path d="M3.67969 9.14062C3.03516 9.14062 2.47656 8.95703 2.00391 8.58984C1.53516 8.21875 1.17188 7.69727 0.914062 7.02539C0.65625 6.35352 0.527344 5.55859 0.527344 4.64062C0.527344 3.71875 0.65625 2.92188 0.914062 2.25C1.17188 1.57422 1.53516 1.05273 2.00391 0.685547C2.47656 0.314453 3.03516 0.128906 3.67969 0.128906C4.32422 0.128906 4.88281 0.314453 5.35547 0.685547C5.82812 1.05273 6.19141 1.57422 6.44531 2.25C6.70312 2.92188 6.83203 3.71875 6.83203 4.64062C6.83203 5.55859 6.70312 6.35352 6.44531 7.02539C6.19141 7.69727 5.82812 8.21875 5.35547 8.58984C4.88281 8.95703 4.32422 9.14062 3.67969 9.14062ZM3.67969 8.20312C4.34766 8.20312 4.87305 7.88672 5.25586 7.25391C5.64258 6.61719 5.83594 5.74609 5.83594 4.64062C5.83594 3.52734 5.64258 2.6543 5.25586 2.02148C4.87305 1.38477 4.34766 1.06641 3.67969 1.06641C3.01172 1.06641 2.48438 1.38477 2.09766 2.02148C1.71484 2.6543 1.52344 3.52734 1.52344 4.64062C1.52344 5.74609 1.71484 6.61719 2.09766 7.25391C2.48438 7.88672 3.01172 8.20312 3.67969 8.20312ZM13.4922 9.14062C12.8906 9.14062 12.3594 9.01953 11.8984 8.77734C11.4375 8.53125 11.0762 8.19141 10.8145 7.75781C10.5527 7.32422 10.4219 6.82422 10.4219 6.25781H11.4883C11.4883 6.875 11.6621 7.35547 12.0098 7.69922C12.3574 8.04297 12.8438 8.21484 13.4688 8.21484C14.0664 8.21484 14.5508 8.06445 14.9219 7.76367C15.2969 7.45898 15.4844 7.05078 15.4844 6.53906C15.4844 6.07422 15.2852 5.70117 14.8867 5.41992C14.4883 5.13477 13.9688 4.99219 13.3281 4.99219H12.625V4.05469H13.3281C13.8906 4.05469 14.3457 3.92578 14.6934 3.66797C15.041 3.40625 15.2148 3.0625 15.2148 2.63672C15.2148 2.14453 15.0508 1.75781 14.7227 1.47656C14.3984 1.19531 13.9648 1.05469 13.4219 1.05469C12.8672 1.05469 12.4297 1.21094 12.1094 1.52344C11.7891 1.83203 11.6289 2.26172 11.6289 2.8125H10.6094C10.6094 2.28516 10.7285 1.82031 10.9668 1.41797C11.209 1.01172 11.541 0.695313 11.9629 0.46875C12.3887 0.242187 12.877 0.128906 13.4277 0.128906C13.9629 0.128906 14.4434 0.234375 14.8691 0.445312C15.2949 0.65625 15.6309 0.945312 15.877 1.3125C16.123 1.67969 16.2461 2.10156 16.2461 2.57812C16.2461 3.01953 16.1055 3.41211 15.8242 3.75586C15.5469 4.0957 15.1641 4.33984 14.6758 4.48828V4.50586C15.2344 4.59961 15.6797 4.83398 16.0117 5.20898C16.3477 5.58008 16.5156 6.02344 16.5156 6.53906C16.5156 7.04688 16.3828 7.49805 16.1172 7.89258C15.8555 8.2832 15.4961 8.58984 15.0391 8.8125C14.5859 9.03125 14.0703 9.14062 13.4922 9.14062Z" fill="#323C61"/>
</svg>
