<svg width="17" height="10" viewBox="0 0 17 10" fill="none" xmlns="http://www.w3.org/2000/svg">
<path d="M3.67969 9.14062C3.03516 9.14062 2.47656 8.95703 2.00391 8.58984C1.53516 8.21875 1.17188 7.69727 0.914062 7.02539C0.65625 6.35352 0.527344 5.55859 0.527344 4.64062C0.527344 3.71875 0.65625 2.92188 0.914062 2.25C1.17188 1.57422 1.53516 1.05273 2.00391 0.685547C2.47656 0.314453 3.03516 0.128906 3.67969 0.128906C4.32422 0.128906 4.88281 0.314453 5.35547 0.685547C5.82812 1.05273 6.19141 1.57422 6.44531 2.25C6.70312 2.92188 6.83203 3.71875 6.83203 4.64062C6.83203 5.55859 6.70312 6.35352 6.44531 7.02539C6.19141 7.69727 5.82812 8.21875 5.35547 8.58984C4.88281 8.95703 4.32422 9.14062 3.67969 9.14062ZM3.67969 8.20312C4.34766 8.20312 4.87305 7.88672 5.25586 7.25391C5.64258 6.61719 5.83594 5.74609 5.83594 4.64062C5.83594 3.52734 5.64258 2.6543 5.25586 2.02148C4.87305 1.38477 4.34766 1.06641 3.67969 1.06641C3.01172 1.06641 2.48438 1.38477 2.09766 2.02148C1.71484 2.6543 1.52344 3.52734 1.52344 4.64062C1.52344 5.74609 1.71484 6.61719 2.09766 7.25391C2.48438 7.88672 3.01172 8.20312 3.67969 8.20312ZM10.1641 6.89062V6.02344L14.3418 0.269531H15.6309V5.95312H16.9668V6.89062H15.6309V9H14.623V6.89062H10.1641ZM14.623 5.95312V1.45312H14.6113L11.3594 5.94141V5.95312H14.623Z" fill="#323C61"/>
</svg>
