<svg width="17" height="10" viewBox="0 0 17 10" fill="none" xmlns="http://www.w3.org/2000/svg">
<path d="M3.67969 9.14062C3.03516 9.14062 2.47656 8.95703 2.00391 8.58984C1.53516 8.21875 1.17188 7.69727 0.914062 7.02539C0.65625 6.35352 0.527344 5.55859 0.527344 4.64062C0.527344 3.71875 0.65625 2.92188 0.914062 2.25C1.17188 1.57422 1.53516 1.05273 2.00391 0.685547C2.47656 0.314453 3.03516 0.128906 3.67969 0.128906C4.32422 0.128906 4.88281 0.314453 5.35547 0.685547C5.82812 1.05273 6.19141 1.57422 6.44531 2.25C6.70312 2.92188 6.83203 3.71875 6.83203 4.64062C6.83203 5.55859 6.70312 6.35352 6.44531 7.02539C6.19141 7.69727 5.82812 8.21875 5.35547 8.58984C4.88281 8.95703 4.32422 9.14062 3.67969 9.14062ZM3.67969 8.20312C4.34766 8.20312 4.87305 7.88672 5.25586 7.25391C5.64258 6.61719 5.83594 5.74609 5.83594 4.64062C5.83594 3.52734 5.64258 2.6543 5.25586 2.02148C4.87305 1.38477 4.34766 1.06641 3.67969 1.06641C3.01172 1.06641 2.48438 1.38477 2.09766 2.02148C1.71484 2.6543 1.52344 3.52734 1.52344 4.64062C1.52344 5.74609 1.71484 6.61719 2.09766 7.25391C2.48438 7.88672 3.01172 8.20312 3.67969 8.20312ZM13.334 9.11719C12.7754 9.11719 12.2734 9.00195 11.8281 8.77148C11.3828 8.53711 11.0273 8.2207 10.7617 7.82227C10.4961 7.42383 10.3516 6.97266 10.3281 6.46875H11.3828C11.4297 6.96484 11.6328 7.375 11.9922 7.69922C12.3555 8.01953 12.8027 8.17969 13.334 8.17969C13.7129 8.17969 14.043 8.0918 14.3242 7.91602C14.6094 7.74023 14.832 7.5 14.9922 7.19531C15.1523 6.88672 15.2324 6.53516 15.2324 6.14062C15.2324 5.74609 15.1562 5.39648 15.0039 5.0918C14.8516 4.78711 14.6387 4.54883 14.3652 4.37695C14.0918 4.20117 13.7734 4.11328 13.4102 4.11328C12.9297 4.11328 12.5176 4.21094 12.1738 4.40625C11.8301 4.59766 11.5898 4.87891 11.4531 5.25H10.4395L10.7324 0.269531H15.7715V1.20703H11.6875L11.4766 4.03711H11.4883C12.0312 3.45508 12.7148 3.16406 13.5391 3.16406C14.0742 3.16406 14.5449 3.29102 14.9512 3.54492C15.3613 3.79883 15.6797 4.14844 15.9062 4.59375C16.1367 5.03906 16.252 5.55078 16.252 6.12891C16.252 6.71484 16.1289 7.23242 15.8828 7.68164C15.6406 8.13086 15.3008 8.48242 14.8633 8.73633C14.4258 8.99023 13.916 9.11719 13.334 9.11719Z" fill="#323C61"/>
</svg>
