<svg width="17" height="10" viewBox="0 0 17 10" fill="none" xmlns="http://www.w3.org/2000/svg">
<path d="M3.67969 9.14062C3.03516 9.14062 2.47656 8.95703 2.00391 8.58984C1.53516 8.21875 1.17188 7.69727 0.914062 7.02539C0.65625 6.35352 0.527344 5.55859 0.527344 4.64062C0.527344 3.71875 0.65625 2.92188 0.914062 2.25C1.17188 1.57422 1.53516 1.05273 2.00391 0.685547C2.47656 0.314453 3.03516 0.128906 3.67969 0.128906C4.32422 0.128906 4.88281 0.314453 5.35547 0.685547C5.82812 1.05273 6.19141 1.57422 6.44531 2.25C6.70312 2.92188 6.83203 3.71875 6.83203 4.64062C6.83203 5.55859 6.70312 6.35352 6.44531 7.02539C6.19141 7.69727 5.82812 8.21875 5.35547 8.58984C4.88281 8.95703 4.32422 9.14062 3.67969 9.14062ZM3.67969 8.20312C4.34766 8.20312 4.87305 7.88672 5.25586 7.25391C5.64258 6.61719 5.83594 5.74609 5.83594 4.64062C5.83594 3.52734 5.64258 2.6543 5.25586 2.02148C4.87305 1.38477 4.34766 1.06641 3.67969 1.06641C3.01172 1.06641 2.48438 1.38477 2.09766 2.02148C1.71484 2.6543 1.52344 3.52734 1.52344 4.64062C1.52344 5.74609 1.71484 6.61719 2.09766 7.25391C2.48438 7.88672 3.01172 8.20312 3.67969 8.20312ZM13.4219 9.14062C12.457 9.14062 11.709 8.78125 11.1777 8.0625C10.6504 7.33984 10.3867 6.32031 10.3867 5.00391C10.3867 4.02344 10.498 3.16797 10.7207 2.4375C10.9473 1.70703 11.2949 1.14063 11.7637 0.738281C12.2324 0.332031 12.832 0.128906 13.5625 0.128906C14.3203 0.128906 14.9395 0.341797 15.4199 0.767578C15.9043 1.19336 16.1875 1.75391 16.2695 2.44922H15.2383C15.1562 2.02734 14.9766 1.69141 14.6992 1.44141C14.4258 1.19141 14.0684 1.06641 13.627 1.06641C13.123 1.06641 12.7051 1.21094 12.373 1.5C12.0449 1.78906 11.7988 2.1875 11.6348 2.69531C11.4746 3.19922 11.3945 3.77734 11.3945 4.42969H11.4062C11.6055 4.09375 11.9023 3.82422 12.2969 3.62109C12.6953 3.41797 13.1289 3.31641 13.5977 3.31641C14.125 3.31641 14.5938 3.44336 15.0039 3.69727C15.418 3.94727 15.7441 4.29102 15.9824 4.72852C16.2207 5.16211 16.3398 5.65625 16.3398 6.21094C16.3398 6.78516 16.2148 7.29297 15.9648 7.73438C15.7188 8.17578 15.377 8.52148 14.9395 8.77148C14.502 9.01758 13.9961 9.14062 13.4219 9.14062ZM13.4219 8.20312C13.7734 8.20312 14.0918 8.11523 14.377 7.93945C14.666 7.75977 14.8945 7.51953 15.0625 7.21875C15.2344 6.91406 15.3203 6.57812 15.3203 6.21094C15.3203 5.84375 15.2383 5.51367 15.0742 5.2207C14.9102 4.92383 14.6875 4.68945 14.4062 4.51758C14.125 4.3418 13.8086 4.25391 13.457 4.25391C13.1055 4.25391 12.7832 4.3418 12.4902 4.51758C12.2012 4.69336 11.9688 4.93164 11.793 5.23242C11.6211 5.5293 11.5352 5.85938 11.5352 6.22266C11.5352 6.58594 11.6191 6.91797 11.7871 7.21875C11.959 7.51953 12.1875 7.75977 12.4727 7.93945C12.7578 8.11523 13.0742 8.20312 13.4219 8.20312Z" fill="#323C61"/>
</svg>
