<svg width="14" height="14" viewBox="0 0 14 14" fill="none" xmlns="http://www.w3.org/2000/svg">
<path fill-rule="evenodd" clip-rule="evenodd" d="M0.5 1.4C0.5 0.90294 0.902947 0.5 1.4 0.5H12.6C13.0971 0.5 13.5 0.902947 13.5 1.4V12.6C13.5 13.0971 13.0971 13.5 12.6 13.5H1.4C0.90294 13.5 0.5 13.0971 0.5 12.6V1.4ZM7 3.16667C7.27613 3.16667 7.5 3.39053 7.5 3.66667V7.66667C7.5 7.9428 7.27613 8.16667 7 8.16667C6.72387 8.16667 6.5 7.9428 6.5 7.66667V3.66667C6.5 3.39053 6.72387 3.16667 7 3.16667ZM7.37833 10.6672C7.56307 10.4619 7.5464 10.1458 7.34113 9.96107C7.13587 9.77633 6.81973 9.79293 6.635 9.9982L6.62833 10.0056C6.4436 10.2109 6.46027 10.527 6.66553 10.7117C6.8708 10.8965 7.18693 10.8798 7.37167 10.6746L7.37833 10.6672Z" fill="#F84C3B"/>
</svg>
