<svg width="166" height="48" viewBox="0 0 166 48" fill="none" xmlns="http://www.w3.org/2000/svg">
<path d="M12.4336 12.2773H5.63672V11.1172H12.3984C12.2734 9.28125 11.7812 7.80469 10.9219 6.6875C9.9375 5.40625 8.57031 4.76562 6.82031 4.76562C5.19531 4.76562 3.89062 5.34766 2.90625 6.51172C2.41406 7.09766 1.97266 7.99219 1.58203 9.19531H1.00781L1.21875 3.80469H1.72266C1.98047 4.375 2.28516 4.66016 2.63672 4.66016C2.95703 4.66016 3.375 4.56641 3.89062 4.37891C4.98438 3.98047 6.04688 3.78125 7.07812 3.78125C9.48438 3.78125 11.4414 4.57422 12.9492 6.16016C14.457 7.73828 15.2109 9.73438 15.2109 12.1484C15.2109 14.5625 14.4648 16.5312 12.9727 18.0547C11.4883 19.5781 9.53906 20.3398 7.125 20.3398C4.71094 20.3398 2.57422 19.3398 0.714844 17.3398L1.125 16.8594C2.03125 17.7031 2.85938 18.3008 3.60938 18.6523C4.48438 19.0586 5.48047 19.2617 6.59766 19.2617C8.50391 19.2617 9.97266 18.5508 11.0039 17.1289C11.9102 15.8867 12.3867 14.2695 12.4336 12.2773ZM33.1462 20H26.1853V19.543C27.4197 19.543 28.0369 19.3516 28.0369 18.9688C28.0369 18.7578 27.8611 18.4688 27.5095 18.1016L22.0134 12.418H21.3337V18.0781C21.3337 19.0078 22.0525 19.4961 23.49 19.543V20H16.7283V19.543C18.1658 19.4961 18.8845 19.0078 18.8845 18.0781V6.03125C18.8845 5.10156 18.1658 4.61328 16.7283 4.56641V4.10938H23.5486V4.56641C22.072 4.61328 21.3337 5.10156 21.3337 6.03125V11.7383H21.7205L26.572 6.85156C27.2595 6.15625 27.6033 5.66016 27.6033 5.36328C27.6033 4.85547 27.0759 4.58984 26.0212 4.56641V4.10938H32.2556V4.56641C31.5681 4.60547 31.0017 4.72656 30.5564 4.92969C29.697 5.32031 28.5525 6.24609 27.1228 7.70703L23.9002 11L30.3806 17.9375C30.99 18.5859 31.5447 19.0352 32.0447 19.2852C32.2009 19.3633 32.5681 19.4492 33.1462 19.543V20ZM48.8316 9.19531H48.2573C47.8667 7.99219 47.4253 7.09766 46.9331 6.51172C45.9487 5.34766 44.6441 4.76562 43.0191 4.76562C41.0972 4.76562 39.6441 5.52344 38.6597 7.03906C37.8237 8.32031 37.4058 9.97656 37.4058 12.0078C37.4058 14.0547 37.855 15.7266 38.7534 17.0234C39.7925 18.5156 41.2886 19.2617 43.2417 19.2617C44.3589 19.2617 45.355 19.0586 46.23 18.6523C46.98 18.3008 47.8081 17.7031 48.7144 16.8594L49.1245 17.3398C47.2652 19.3398 45.1284 20.3398 42.7144 20.3398C40.3003 20.3398 38.3472 19.5781 36.855 18.0547C35.3706 16.5312 34.6284 14.5625 34.6284 12.1484C34.6284 9.73438 35.3823 7.73828 36.8902 6.16016C38.398 4.57422 40.355 3.78125 42.7612 3.78125C43.7925 3.78125 44.855 3.98047 45.9487 4.37891C46.4644 4.56641 46.8823 4.66016 47.2027 4.66016C47.5542 4.66016 47.8589 4.375 48.1167 3.80469H48.6206L48.8316 9.19531ZM66.9544 20H60.2747V19.543C61.6888 19.4961 62.3958 19.0078 62.3958 18.0781V6.53516C62.3958 5.55859 61.6888 5.07031 60.2747 5.07031H57.2278C55.8216 5.07031 55.1184 5.55859 55.1184 6.53516V18.0781C55.1184 19.0078 55.8216 19.4961 57.2278 19.543V20H50.5598V19.543C51.9661 19.4961 52.6692 19.0078 52.6692 18.0781V6.03125C52.6692 5.10156 51.9661 4.61328 50.5598 4.56641V4.10938H66.9544V4.56641C65.5481 4.61328 64.845 5.10156 64.845 6.03125V18.0781C64.845 19.0078 65.5481 19.4961 66.9544 19.543V20ZM67.9561 20V19.543C69.3623 19.4961 70.0655 19.0078 70.0655 18.0781V6.03125C70.0655 5.10156 69.3623 4.61328 67.9561 4.56641V4.10938H80.6944V7.54297H80.167C80.0108 6.89453 79.7959 6.39844 79.5225 6.05469C79.0147 5.41406 78.3194 5.09375 77.4366 5.09375H73.5694C72.8662 5.09375 72.5147 5.40625 72.5147 6.03125V11.1875H75.8897C76.8428 11.1875 77.542 11.043 77.9873 10.7539C78.542 10.4023 78.835 9.78125 78.8662 8.89062H79.3702V14.5039H78.8662C78.835 13.6133 78.542 12.9883 77.9873 12.6289C77.5342 12.3242 76.835 12.1719 75.8897 12.1719H72.5147V18.0781C72.5147 18.7031 72.7217 19.0156 73.1358 19.0156H76.2998C77.4873 19.0156 78.3702 18.9023 78.9483 18.6758C79.8545 18.3164 80.6436 17.4062 81.3155 15.9453H81.9952L80.9053 20H67.9561ZM82.8445 19.543C84.2508 19.4961 84.9539 19.0078 84.9539 18.0781V6.03125C84.9539 5.10156 84.2898 4.61328 82.9617 4.56641V4.10938H89.0086C90.7508 4.10938 92.1922 4.38672 93.3328 4.94141C94.8328 5.67578 95.5828 6.82422 95.5828 8.38672C95.5828 10.0039 94.9344 11.2227 93.6375 12.043C92.5516 12.7227 91.1453 13.0625 89.4187 13.0625C88.9266 13.0625 88.2547 13.0234 87.4031 12.9453V18.0781C87.4031 19.0078 88.1062 19.4961 89.5125 19.543V20H82.8445V19.543ZM87.4031 12.0547L87.7781 12.0781C88.2781 12.1094 88.5906 12.125 88.7156 12.125C91.5516 12.125 92.9695 10.9258 92.9695 8.52734C92.9695 6.17578 91.4148 5 88.3055 5C87.868 5 87.5984 5.08594 87.4969 5.25781C87.4344 5.35938 87.4031 5.64063 87.4031 6.10156V12.0547ZM104.717 5.11719V18.0781C104.717 19.0078 105.42 19.4961 106.827 19.543V20H100.159V19.543C101.565 19.4961 102.268 19.0078 102.268 18.0781V5.11719H101.483C99.608 5.11719 98.44 5.41406 97.9791 6.00781C97.7994 6.23437 97.6392 6.54688 97.4986 6.94531C97.4205 7.15625 97.315 7.57031 97.1822 8.1875H96.608L96.7486 4.10938H110.284L110.436 8.1875H109.85C109.655 7.22656 109.456 6.5625 109.253 6.19531C108.987 5.71094 108.588 5.39453 108.057 5.24609C107.745 5.16016 107.21 5.11719 106.452 5.11719H104.717ZM123.403 11.3867V6.03125C123.403 5.10156 122.696 4.61328 121.282 4.56641V4.10938H127.961V4.56641C126.555 4.61328 125.852 5.10156 125.852 6.03125V18.0781C125.852 19.0078 126.555 19.4961 127.961 19.543V20H121.282V19.543C122.696 19.4961 123.403 19.0078 123.403 18.0781V12.3711H116.125V18.0781C116.125 19.0078 116.828 19.4961 118.235 19.543V20H111.567V19.543C112.973 19.4961 113.676 19.0078 113.676 18.0781V6.03125C113.676 5.10156 112.973 4.61328 111.567 4.56641V4.10938H118.235V4.56641C116.828 4.61328 116.125 5.10156 116.125 6.03125V11.3867H123.403ZM142.85 15.4648C142.85 16.9727 142.26 18.1328 141.08 18.9453C140.049 19.6484 138.744 20 137.166 20H129.15V19.543C130.557 19.4961 131.26 19.0078 131.26 18.0781V6.03125C131.26 5.10156 130.557 4.61328 129.15 4.56641V4.10938H135.947V4.56641C134.455 4.61328 133.709 5.10156 133.709 6.03125V11.1172H136.018C140.572 11.1172 142.85 12.5664 142.85 15.4648ZM140.19 15.6289C140.19 14.0273 139.533 12.9883 138.221 12.5117C137.252 12.1602 135.748 11.9844 133.709 11.9844V17.7734C133.709 18.2734 133.791 18.6094 133.955 18.7812C134.166 19 134.717 19.1094 135.607 19.1094C138.662 19.1094 140.19 17.9492 140.19 15.6289ZM145.779 6.03125C145.779 5.10156 145.076 4.61328 143.67 4.56641V4.10938H150.338V4.56641C148.932 4.61328 148.229 5.10156 148.229 6.03125V18.0781C148.229 19.0078 148.932 19.4961 150.338 19.543V20H143.67V19.543C145.076 19.4961 145.779 19.0078 145.779 18.0781V6.03125ZM151.351 20V19.543C152.758 19.4961 153.461 19.0078 153.461 18.0781V6.03125C153.461 5.10156 152.758 4.61328 151.351 4.56641V4.10938H164.09V7.54297H163.562C163.406 6.89453 163.191 6.39844 162.918 6.05469C162.41 5.41406 161.715 5.09375 160.832 5.09375H156.965C156.262 5.09375 155.91 5.40625 155.91 6.03125V11.1875H159.285C160.238 11.1875 160.937 11.043 161.383 10.7539C161.937 10.4023 162.23 9.78125 162.262 8.89062H162.765V14.5039H162.262C162.23 13.6133 161.937 12.9883 161.383 12.6289C160.93 12.3242 160.23 12.1719 159.285 12.1719H155.91V18.0781C155.91 18.7031 156.117 19.0156 156.531 19.0156H159.695C160.883 19.0156 161.765 18.9023 162.344 18.6758C163.25 18.3164 164.039 17.4062 164.711 15.9453H165.39L164.301 20H151.351Z" fill="#EEF0F6"/>
<path d="M1.59375 45V27.5391H8.0625C9.92969 27.5391 11.4102 28.0273 12.5039 29.0039C13.5977 29.9805 14.1445 31.3047 14.1445 32.9766C14.1445 34.0938 13.8906 35.0625 13.3828 35.8828C12.875 36.6953 12.1602 37.3242 11.2383 37.7695C10.3164 38.207 9.23047 38.4258 7.98047 38.4258H4.19531V45H1.59375ZM4.19531 36.1758H7.93359C9.05859 36.1758 9.94531 35.8906 10.5938 35.3203C11.25 34.7422 11.5781 33.9609 11.5781 32.9766C11.5781 31.9922 11.25 31.2188 10.5938 30.6562C9.94531 30.0859 9.05859 29.8008 7.93359 29.8008H4.19531V36.1758ZM16.6697 45V27.5391H28.4119V29.8242H19.2712V34.9688H27.7322V37.2305H19.2712V42.7148H28.4119V45H16.6697ZM31.0425 27.5391H33.6441V42.7148H39.3628V27.5391H41.9644V42.7148H47.6714V27.5391H50.2847V45H31.0425V27.5391ZM53.7122 45V27.5391H65.4544V29.8242H56.3138V34.9688H64.7747V37.2305H56.3138V42.7148H65.4544V45H53.7122ZM68.085 45V27.5391H70.6866V34.9336H79.3702V27.5391H81.9717V45H79.3702V37.207H70.6866V45H68.085ZM99.3914 45H96.7781V35.5547C96.7781 35.1641 96.7859 34.6016 96.8016 33.8672C96.8172 33.125 96.8445 32.2422 96.8836 31.2188C96.2977 32.2109 95.7781 33.0898 95.325 33.8555C94.8719 34.6133 94.5203 35.1836 94.2703 35.5664L88.3055 45H85.4109V27.5391H88.0125V37.9336C88.0125 38.2539 88.0047 38.7422 87.9891 39.3984C87.9812 40.0469 87.9656 40.6875 87.9422 41.3203C88.2937 40.7031 88.6453 40.0938 88.9969 39.4922C89.3484 38.8906 89.6297 38.4258 89.8406 38.0977L96.5086 27.5391H99.3914V45ZM114.936 45H112.335V38.3906H108.479C108.432 38.3906 108.389 38.3906 108.35 38.3906L104.87 45H101.94L105.713 37.957C104.628 37.5664 103.772 36.9453 103.147 36.0938C102.522 35.2344 102.21 34.1953 102.21 32.9766C102.21 31.3047 102.756 29.9805 103.85 29.0039C104.944 28.0273 106.424 27.5391 108.292 27.5391H114.936V45ZM112.335 36.1758V29.7891H108.42C107.288 29.7891 106.397 30.0742 105.749 30.6445C105.1 31.2148 104.776 31.9922 104.776 32.9766C104.776 33.9609 105.096 34.7422 105.737 35.3203C106.385 35.8906 107.272 36.1758 108.397 36.1758H112.335Z" fill="#EEF0F6"/>
</svg>
