<svg width="111" height="29" viewBox="0 0 111 29" fill="none" xmlns="http://www.w3.org/2000/svg">
<path d="M8.80219 7.35156H4.27094V6.57812H8.77875C8.69541 5.35417 8.36729 4.36979 7.79437 3.625C7.13812 2.77083 6.22666 2.34375 5.06 2.34375C3.97666 2.34375 3.10687 2.73177 2.45062 3.50781C2.1225 3.89844 1.82823 4.49479 1.56781 5.29688H1.185L1.32562 1.70312H1.66156C1.83344 2.08333 2.03656 2.27344 2.27094 2.27344C2.48448 2.27344 2.76312 2.21094 3.10687 2.08594C3.83604 1.82031 4.54437 1.6875 5.23187 1.6875C6.83604 1.6875 8.14073 2.21615 9.14594 3.27344C10.1511 4.32552 10.6537 5.65625 10.6537 7.26562C10.6537 8.875 10.1564 10.1875 9.16156 11.2031C8.17198 12.2188 6.8725 12.7266 5.26312 12.7266C3.65375 12.7266 2.22927 12.0599 0.989685 10.7266L1.26312 10.4062C1.86729 10.9688 2.41937 11.3672 2.91937 11.6016C3.50271 11.8724 4.16677 12.0078 4.91156 12.0078C6.18239 12.0078 7.16156 11.5339 7.84906 10.5859C8.45323 9.75781 8.77094 8.67969 8.80219 7.35156ZM22.6106 12.5H17.97V12.1953C18.7929 12.1953 19.2044 12.0677 19.2044 11.8125C19.2044 11.6719 19.0872 11.4792 18.8528 11.2344L15.1887 7.44531H14.7356V11.2188C14.7356 11.8385 15.2148 12.1641 16.1731 12.1953V12.5H11.6653V12.1953C12.6236 12.1641 13.1028 11.8385 13.1028 11.2188V3.1875C13.1028 2.56771 12.6236 2.24219 11.6653 2.21094V1.90625H16.2122V2.21094C15.2278 2.24219 14.7356 2.56771 14.7356 3.1875V6.99219H14.9934L18.2278 3.73438C18.6861 3.27083 18.9153 2.9401 18.9153 2.74219C18.9153 2.40365 18.5637 2.22656 17.8606 2.21094V1.90625H22.0169V2.21094C21.5585 2.23698 21.1809 2.31771 20.8841 2.45312C20.3111 2.71354 19.5481 3.33073 18.595 4.30469L16.4466 6.5L20.7669 11.125C21.1731 11.5573 21.5429 11.8568 21.8762 12.0234C21.9804 12.0755 22.2252 12.1328 22.6106 12.1953V12.5ZM33.0675 5.29688H32.6847C32.4243 4.49479 32.13 3.89844 31.8019 3.50781C31.1456 2.73177 30.2758 2.34375 29.1925 2.34375C27.9112 2.34375 26.9425 2.84896 26.2862 3.85938C25.729 4.71354 25.4503 5.81771 25.4503 7.17188C25.4503 8.53646 25.7498 9.65104 26.3487 10.5156C27.0415 11.5104 28.0389 12.0078 29.3409 12.0078C30.0857 12.0078 30.7498 11.8724 31.3331 11.6016C31.8331 11.3672 32.3852 10.9688 32.9894 10.4062L33.2628 10.7266C32.0232 12.0599 30.5987 12.7266 28.9894 12.7266C27.38 12.7266 26.0779 12.2188 25.0831 11.2031C24.0935 10.1875 23.5987 8.875 23.5987 7.26562C23.5987 5.65625 24.1014 4.32552 25.1066 3.27344C26.1118 2.21615 27.4165 1.6875 29.0206 1.6875C29.7081 1.6875 30.4165 1.82031 31.1456 2.08594C31.4894 2.21094 31.768 2.27344 31.9816 2.27344C32.2159 2.27344 32.4191 2.08333 32.5909 1.70312H32.9269L33.0675 5.29688ZM45.1494 12.5H40.6962V12.1953C41.639 12.1641 42.1103 11.8385 42.1103 11.2188V3.52344C42.1103 2.8724 41.639 2.54688 40.6962 2.54688H38.665C37.7275 2.54688 37.2587 2.8724 37.2587 3.52344V11.2188C37.2587 11.8385 37.7275 12.1641 38.665 12.1953V12.5H34.2197V12.1953C35.1572 12.1641 35.6259 11.8385 35.6259 11.2188V3.1875C35.6259 2.56771 35.1572 2.24219 34.2197 2.21094V1.90625H45.1494V2.21094C44.2119 2.24219 43.7431 2.56771 43.7431 3.1875V11.2188C43.7431 11.8385 44.2119 12.1641 45.1494 12.1953V12.5ZM45.8172 12.5V12.1953C46.7547 12.1641 47.2234 11.8385 47.2234 11.2188V3.1875C47.2234 2.56771 46.7547 2.24219 45.8172 2.21094V1.90625H54.3094V4.19531H53.9578C53.8536 3.76302 53.7104 3.43229 53.5281 3.20312C53.1896 2.77604 52.726 2.5625 52.1375 2.5625H49.5594C49.0906 2.5625 48.8562 2.77083 48.8562 3.1875V6.625H51.1062C51.7417 6.625 52.2078 6.52865 52.5047 6.33594C52.8745 6.10156 53.0698 5.6875 53.0906 5.09375H53.4266V8.83594H53.0906C53.0698 8.24219 52.8745 7.82552 52.5047 7.58594C52.2026 7.38281 51.7365 7.28125 51.1062 7.28125H48.8562V11.2188C48.8562 11.6354 48.9943 11.8438 49.2703 11.8438H51.3797C52.1714 11.8438 52.7599 11.7682 53.1453 11.6172C53.7495 11.3776 54.2755 10.7708 54.7234 9.79688H55.1766L54.45 12.5H45.8172ZM55.7428 12.1953C56.6803 12.1641 57.1491 11.8385 57.1491 11.2188V3.1875C57.1491 2.56771 56.7064 2.24219 55.8209 2.21094V1.90625H59.8522C61.0136 1.90625 61.9746 2.09115 62.735 2.46094C63.735 2.95052 64.235 3.71615 64.235 4.75781C64.235 5.83594 63.8027 6.64844 62.9381 7.19531C62.2142 7.64844 61.2767 7.875 60.1256 7.875C59.7975 7.875 59.3496 7.84896 58.7819 7.79688V11.2188C58.7819 11.8385 59.2506 12.1641 60.1881 12.1953V12.5H55.7428V12.1953ZM58.7819 7.20312L59.0319 7.21875C59.3652 7.23958 59.5735 7.25 59.6569 7.25C61.5475 7.25 62.4928 6.45052 62.4928 4.85156C62.4928 3.28385 61.4564 2.5 59.3834 2.5C59.0918 2.5 58.9121 2.55729 58.8444 2.67188C58.8027 2.73958 58.7819 2.92708 58.7819 3.23438V7.20312ZM70.3247 2.57812V11.2188C70.3247 11.8385 70.7934 12.1641 71.7309 12.1953V12.5H67.2856V12.1953C68.2231 12.1641 68.6919 11.8385 68.6919 11.2188V2.57812H68.1684C66.9184 2.57812 66.1398 2.77604 65.8325 3.17188C65.7127 3.32292 65.6059 3.53125 65.5122 3.79688C65.4601 3.9375 65.3898 4.21354 65.3012 4.625H64.9184L65.0122 1.90625H74.0356L74.1372 4.625H73.7466C73.6164 3.98438 73.4835 3.54167 73.3481 3.29688C73.171 2.97396 72.9054 2.76302 72.5512 2.66406C72.3429 2.60677 71.9861 2.57812 71.4809 2.57812H70.3247ZM82.7816 6.75781V3.1875C82.7816 2.56771 82.3102 2.24219 81.3675 2.21094V1.90625H85.8206V2.21094C84.8831 2.24219 84.4144 2.56771 84.4144 3.1875V11.2188C84.4144 11.8385 84.8831 12.1641 85.8206 12.1953V12.5H81.3675V12.1953C82.3102 12.1641 82.7816 11.8385 82.7816 11.2188V7.41406H77.93V11.2188C77.93 11.8385 78.3988 12.1641 79.3363 12.1953V12.5H74.8909V12.1953C75.8284 12.1641 76.2972 11.8385 76.2972 11.2188V3.1875C76.2972 2.56771 75.8284 2.24219 74.8909 2.21094V1.90625H79.3363V2.21094C78.3988 2.24219 77.93 2.56771 77.93 3.1875V6.75781H82.7816ZM95.7462 9.47656C95.7462 10.4818 95.353 11.2552 94.5666 11.7969C93.8791 12.2656 93.0093 12.5 91.9572 12.5H86.6134V12.1953C87.5509 12.1641 88.0197 11.8385 88.0197 11.2188V3.1875C88.0197 2.56771 87.5509 2.24219 86.6134 2.21094V1.90625H91.1447V2.21094C90.1499 2.24219 89.6525 2.56771 89.6525 3.1875V6.57812H91.1916C94.228 6.57812 95.7462 7.54427 95.7462 9.47656ZM93.9728 9.58594C93.9728 8.51823 93.5353 7.82552 92.6603 7.50781C92.0145 7.27344 91.0119 7.15625 89.6525 7.15625V11.0156C89.6525 11.349 89.7072 11.5729 89.8166 11.6875C89.9572 11.8333 90.3244 11.9062 90.9181 11.9062C92.9546 11.9062 93.9728 11.1328 93.9728 9.58594ZM97.6994 3.1875C97.6994 2.56771 97.2306 2.24219 96.2931 2.21094V1.90625H100.738V2.21094C99.8009 2.24219 99.3322 2.56771 99.3322 3.1875V11.2188C99.3322 11.8385 99.8009 12.1641 100.738 12.1953V12.5H96.2931V12.1953C97.2306 12.1641 97.6994 11.8385 97.6994 11.2188V3.1875ZM101.414 12.5V12.1953C102.352 12.1641 102.82 11.8385 102.82 11.2188V3.1875C102.82 2.56771 102.352 2.24219 101.414 2.21094V1.90625H109.906V4.19531H109.555C109.451 3.76302 109.307 3.43229 109.125 3.20312C108.786 2.77604 108.323 2.5625 107.734 2.5625H105.156C104.688 2.5625 104.453 2.77083 104.453 3.1875V6.625H106.703C107.339 6.625 107.805 6.52865 108.102 6.33594C108.471 6.10156 108.667 5.6875 108.688 5.09375H109.023V8.83594H108.688C108.667 8.24219 108.471 7.82552 108.102 7.58594C107.799 7.38281 107.333 7.28125 106.703 7.28125H104.453V11.2188C104.453 11.6354 104.591 11.8438 104.867 11.8438H106.977C107.768 11.8438 108.357 11.7682 108.742 11.6172C109.346 11.3776 109.872 10.7708 110.32 9.79688H110.773L110.047 12.5H101.414Z" fill="#EEF0F6"/>
<path d="M38.8205 22.828V27.5H37.0925V15.66H40.5165C43.3485 15.66 44.6925 17.132 44.6925 19.244C44.6925 21.356 43.3485 22.828 40.5165 22.828H38.8205ZM38.8205 17.244V21.244H40.5165C42.4845 21.244 42.9645 20.124 42.9645 19.244C42.9645 18.364 42.4845 17.244 40.5165 17.244H38.8205ZM52.9215 27.5H46.5375V15.66H52.9215V17.244H48.2655V20.732H52.9215V22.316H48.2655V25.916H52.9215V27.5ZM55.3419 27.5V15.66H57.0699V25.916H60.8139V15.66H62.5419V25.916H66.2859V15.66H68.0139V27.5H55.3419ZM77.124 27.5H70.74V15.66H77.124V17.244H72.468V20.732H77.124V22.316H72.468V25.916H77.124V27.5ZM87.8804 27.5H86.1524V22.348H81.2724V27.5H79.5444V15.66H81.2724V20.764H86.1524V15.66H87.8804V27.5ZM92.3748 27.5H90.5988V15.66H92.3268V24.812H92.3588L98.0388 15.66H99.9108V27.5H98.1828V18.22H98.1508L92.3748 27.5ZM104.142 27.5H101.998L105.294 23.228C104.638 23.212 102.174 22.716 102.174 19.532C102.174 18.46 102.51 17.372 103.262 16.652C103.886 16.06 104.686 15.66 106.35 15.66H109.806V27.5H108.078V22.156H108.046L104.142 27.5ZM108.078 21.916V17.244H106.462C104.462 17.244 103.902 18.492 103.902 19.532C103.902 21.868 106.318 21.916 107.102 21.916H108.078Z" fill="#EEF0F6"/>
</svg>
