<svg width="16" height="16" viewBox="0 0 16 16" fill="none" xmlns="http://www.w3.org/2000/svg">
<path d="M4 12.2667V3.73334C4 3.51243 4.17909 3.33334 4.4 3.33334H6.26667C6.48758 3.33334 6.66667 3.51243 6.66667 3.73334V12.2667C6.66667 12.4876 6.48758 12.6667 6.26667 12.6667H4.4C4.17909 12.6667 4 12.4876 4 12.2667Z" stroke="#F6F8FA" stroke-width="1.5"/>
<path d="M9.3335 12.2667V3.73334C9.3335 3.51243 9.51256 3.33334 9.7335 3.33334H11.6002C11.8211 3.33334 12.0002 3.51243 12.0002 3.73334V12.2667C12.0002 12.4876 11.8211 12.6667 11.6002 12.6667H9.7335C9.51256 12.6667 9.3335 12.4876 9.3335 12.2667Z" stroke="#F6F8FA" stroke-width="1.5"/>
</svg>
