<svg width="16" height="16" viewBox="0 0 16 16" fill="none" xmlns="http://www.w3.org/2000/svg">
<path d="M12 9.33332L13.3337 7.99999M13.3337 7.99999L14.6667 6.66666M13.3337 7.99999L12 6.66666M13.3337 7.99999L14.6667 9.33332" stroke="#F6F8FA" stroke-width="1.5" stroke-linecap="round" stroke-linejoin="round"/>
<path d="M1.3335 9.23806V6.76193C1.3335 6.02552 1.93045 5.42857 2.66683 5.42857H4.60016C4.73062 5.42857 4.85822 5.39029 4.96714 5.31848L8.9665 2.68152C9.40976 2.38926 10.0002 2.70716 10.0002 3.23809V12.7619C10.0002 13.2928 9.40976 13.6107 8.9665 13.3185L4.96714 10.6815C4.85822 10.6097 4.73062 10.5714 4.60016 10.5714H2.66683C1.93045 10.5714 1.3335 9.97446 1.3335 9.23806Z" stroke="#F6F8FA" stroke-width="1.5"/>
</svg>
